:SAMPLES-PER-SECOND 30
:FULLY-SPECIFIED
:DEGREES
538
root  -41.3337 34.6652 -44.3518 12.9804 48.7144 -0.255661
RightUpLeg  -37.1872 -10.5148 3.61397
RightLeg  55.8942 -2.03204 -2.68824
RightFoot  7.56027 0.0551144 -0.28361
RightToes  -30.6805 -0.148635 -0.256668
Spine  -0.51574 -0.141299 -0.359363
Spine1  -1.08684 -0.197654 -0.0307158
HEad  -64.4095 0.108612 6.22521
LeftShoulder1  -1.94126e-019 -3.10601e-018 -2.51263e-017
LeftArm  -12.1983 25.4052 -80.2639
LeftForeArm  29.6303 -14.1863 -2.38862
LeftHand  -0.44127 -1.25685 7.85985
RightShoulder  -4.96962e-017 0 -2.36833e-017
RightArm  -20.1647 -19.9857 77.5189
RightForeArm  48.3619 27.2103 3.29173
RightHand  -0.40753 -0.379481 -9.45214
LeftUpLeg  -11.6649 -4.84052 -4.50759
LeftLeg  13.8468 14.4341 2.55711
LeftFoot  -5.79075 -0.0763982 -1.3489
LeftToes  -3.56605 1.31378e-006 1.14341e-007
539
root  -40.1671 34.5261 -43.4884 12.9222 49.4788 -0.558792
RightUpLeg  -39.6993 -11.2188 4.44285
RightLeg  48.0041 -1.63423 -1.6377
RightFoot  7.65827 0.0476534 -0.166482
RightToes  -31.7424 -0.156102 -0.263892
Spine  -0.528534 -0.628441 -0.075872
Spine1  -1.11552 -1.19729 0.540213
HEad  -64.9037 0.75663 6.15872
LeftShoulder1  -1.94126e-019 -3.10601e-018 -2.51263e-017
LeftArm  -10.0788 23.9283 -79.6435
LeftForeArm  28.4828 -17.0003 -2.78832
LeftHand  -0.427294 -1.20944 7.66621
RightShoulder  -4.96962e-017 0 -2.36833e-017
RightArm  -20.3718 -20.485 77.0195
RightForeArm  48.6168 27.178 3.27013
RightHand  -0.416895 -0.215343 -9.37849
LeftUpLeg  -8.03222 -4.96281 -4.63947
LeftLeg  10.86 14.2466 1.77376
LeftFoot  -6.8584 -0.104977 -1.5902
LeftToes  -1.62742 1.31378e-006 1.14341e-007
540
root  -38.9752 34.2716 -42.5859 13.2136 49.6694 -0.478149
RightUpLeg  -41.3112 -11.488 4.76858
RightLeg  38.333 0.128221 0.0672548
RightFoot  9.6628 0.0336122 0.136372
RightToes  -33.8474 -0.171292 -0.277797
Spine  -0.535919 -0.926241 0.0743084
Spine1  -1.13386 -1.8214 0.847742
HEad  -65.7991 1.38353 6.20248
LeftShoulder1  -1.94126e-019 -3.10601e-018 -2.51263e-017
LeftArm  -8.3129 21.9124 -78.8902
LeftForeArm  28.1883 -18.7146 -3.00917
LeftHand  -0.421814 -1.29084 7.4839
RightShoulder  -4.96962e-017 0 -2.36833e-017
RightArm  -21.4439 -20.7609 76.7947
RightForeArm  48.7837 25.9904 3.01436
RightHand  -0.426058 -0.305275 -9.74512
LeftUpLeg  -4.6474 -4.84733 -5.10471
LeftLeg  8.48522 14.4295 1.19843
LeftFoot  -8.22746 -0.152374 -1.95682
LeftToes  1.34479 1.31378e-006 1.14341e-007
541
root  -37.7637 33.9365 -41.626 13.523 49.1939 -0.445847
RightUpLeg  -42.254 -10.4368 4.61433
RightLeg  29.0378 3.67274 1.72993
RightFoot  11.3376 -0.0361776 0.878162
RightToes  -35.4454 -0.18316 -0.287976
Spine  -0.579359 -1.07095 0.176932
Spine1  -1.2211 -2.13401 1.05777
HEad  -66.9966 2.1541 6.18904
LeftShoulder1  -1.94126e-019 -3.10601e-018 -2.51263e-017
LeftArm  -7.50178 19.8087 -78.1841
LeftForeArm  28.8527 -19.7177 -3.14587
LeftHand  -0.430866 -1.24621 7.68928
RightShoulder  -4.96962e-017 0 -2.36833e-017
RightArm  -23.2171 -20.6803 76.7883
RightForeArm  49.0446 23.5565 2.51365
RightHand  -0.42142 -0.487755 -9.97975
LeftUpLeg  -2.04884 -4.45182 -5.61687
LeftLeg  7.86278 14.9546 1.07963
LeftFoot  -10.2638 -0.245751 -2.5743
LeftToes  4.43276 1.31378e-006 1.14341e-007
542
root  -36.5715 33.5803 -40.5677 13.0499 48.8241 -1.62973
RightUpLeg  -43.444 -8.77756 5.16796
RightLeg  24.2688 5.95727 2.22822
RightFoot  7.94368 -0.0308789 0.945176
RightToes  -30.1731 -0.145115 -0.253167
Spine  -0.710247 -1.21687 0.61633
Spine1  -1.48625 -2.43083 1.91117
HEad  -68.2169 3.17459 5.91154
LeftShoulder1  -1.94126e-019 -3.10601e-018 -2.51263e-017
LeftArm  -8.0433 18.0778 -77.9462
LeftForeArm  29.7306 -20.5759 -3.3204
LeftHand  -0.446973 -1.23854 7.98012
RightShoulder  -4.96962e-017 0 -2.36833e-017
RightArm  -25.176 -20.4065 76.4767
RightForeArm  49.2455 20.3416 1.88698
RightHand  -0.389755 -0.866715 -9.96145
LeftUpLeg  -1.16881 -4.36811 -5.34292
LeftLeg  10.6972 16.3531 1.9829
LeftFoot  -13.5221 -0.470514 -3.80566
LeftToes  7.1714 1.31378e-006 1.14341e-007
543
root  -35.2689 33.3263 -39.372 11.9354 48.8513 -2.76604
RightUpLeg  -43.5763 -8.34429 6.24892
RightLeg  24.7602 3.53924 1.35794
RightFoot  3.41024 0.00652736 0.291884
RightToes  -30.0551 -0.1443 -0.252349
Spine  -0.644403 -1.52251 1.10642
Spine1  -1.36897 -3.06703 2.82915
HEad  -69.0214 4.25145 5.54677
LeftShoulder1  -1.94126e-019 -3.10601e-018 -2.51263e-017
LeftArm  -10.1536 16.7078 -78.0824
LeftForeArm  30.08 -20.9631 -3.45008
LeftHand  -0.464548 -0.99876 8.57975
RightShoulder  -4.96962e-017 0 -2.36833e-017
RightArm  -27.2367 -20.1747 76.1551
RightForeArm  49.5845 17.9844 1.44377
RightHand  -0.361662 -1.21257 -9.96457
LeftUpLeg  -0.381338 -4.14264 -4.95896
LeftLeg  15.609 17.3154 3.59522
LeftFoot  -14.4153 -0.576358 -4.39352
LeftToes  3.53654 1.31378e-006 1.14341e-007
544
root  -33.835 33.2401 -37.9879 10.2576 49.0118 -4.4498
RightUpLeg  -41.6525 -8.0362 7.80347
RightLeg  27.0322 -1.04848 -0.459572
RightFoot  4.22413 0.0206861 -0.0208466
RightToes  -26.5212 -0.120714 -0.227076
Spine  -0.653291 -1.80562 1.7105
Spine1  -1.4044 -3.67764 3.99388
HEad  -69.3835 4.96655 5.00096
LeftShoulder1  -1.94126e-019 -3.10601e-018 -2.51263e-017
LeftArm  -12.8439 16.2996 -78.6098
LeftForeArm  29.5709 -21.7937 -3.70088
LeftHand  -0.4627 -0.542385 9.16425
RightShoulder  -4.96962e-017 0 -2.36833e-017
RightArm  -29.5947 -20.5608 75.6088
RightForeArm  50.5754 15.6176 1.2009
RightHand  -0.32151 -1.72266 -10.0118
LeftUpLeg  0.418766 -2.65485 -3.60867
LeftLeg  20.9358 16.7467 5.11102
LeftFoot  -10.7153 -0.316137 -3.20846
LeftToes  -14.5825 1.31378e-006 1.14341e-007
545
root  -32.3696 33.2691 -36.4272 8.72029 49.5152 -7.21785
RightUpLeg  -38.1797 -7.15786 9.70508
RightLeg  26.4058 -1.63514 -0.691002
RightFoot  3.49698 0.0183453 -0.057255
RightToes  -8.75991 -0.0280373 -0.0809004
Spine  -1.26859 -2.086 2.52426
Spine1  -2.65464 -4.25313 5.64105
HEad  -68.5078 5.22332 4.3912
LeftShoulder1  -1.94126e-019 -3.10601e-018 -2.51263e-017
LeftArm  -14.4249 17.6063 -79.2765
LeftForeArm  28.2432 -24.2692 -4.28869
LeftHand  -0.47252 -0.19932 9.9008
RightShoulder  -4.96962e-017 0 -2.36833e-017
RightArm  -31.7104 -22.4571 74.6386
RightForeArm  52.1872 13.7782 1.34049
RightHand  -0.276508 -2.24045 -9.91818
LeftUpLeg  -1.16991 1.8222 -0.101398
LeftLeg  27.9796 12.8785 5.74203
LeftFoot  -2.78214 -0.0178413 -0.573152
LeftToes  -48.9053 1.31378e-006 1.14341e-007
546
root  -30.9216 33.3459 -34.8909 8.14244 49.8621 -9.04482
RightUpLeg  -35.9539 -4.15716 9.84282
RightLeg  27.8393 -4.72852 -2.12429
RightFoot  0.157106 0.000468924 0.0648047
RightToes  -9.4306 -0.0306885 -0.0869029
Spine  -2.01705 -2.13324 3.11724
Spine1  -4.16797 -4.33686 6.87195
HEad  -67.1528 4.84246 3.81567
LeftShoulder1  -1.94126e-019 -3.10601e-018 -2.51263e-017
LeftArm  -14.8306 19.1094 -79.9447
LeftForeArm  27.9913 -26.7038 -4.8009
LeftHand  -0.462194 -0.181572 9.71518
RightShoulder  -4.96962e-017 0 -2.36833e-017
RightArm  -33.083 -24.9603 73.6295
RightForeArm  53.0843 12.7456 1.44191
RightHand  -0.25792 -2.24558 -9.23786
LeftUpLeg  -4.87161 7.18371 3.04108
LeftLeg  37.3362 9.62756 6.34757
LeftFoot  8.26268 -0.116124 1.76913
LeftToes  -71.4941 1.31378e-006 1.14341e-007
547
root  -29.4044 33.4767 -33.4265 6.82985 48.994 -10.142
RightUpLeg  -32.5996 -2.5178 10.0001
RightLeg  29.5003 -5.24013 -2.53828
RightFoot  -3.04148 -0.00492394 0.394296
RightToes  -10.7151 -0.0359612 -0.0983101
Spine  -1.94398 -1.8324 3.52115
Spine1  -4.04069 -3.78781 7.64887
HEad  -67.3412 4.78767 3.22437
LeftShoulder1  -1.94126e-019 -3.10601e-018 -2.51263e-017
LeftArm  -15.5514 19.8253 -80.9287
LeftForeArm  28.8734 -28.3546 -4.99492
LeftHand  -0.465136 -0.535667 9.22188
RightShoulder  -4.96962e-017 0 -2.36833e-017
RightArm  -33.3312 -25.9703 72.6086
RightForeArm  53.5263 12.093 1.49535
RightHand  -0.244322 -2.16106 -8.51001
LeftUpLeg  -8.61483 10.9769 4.83707
LeftLeg  48.3211 8.00999 7.82634
LeftFoot  20.3627 -0.689449 3.99911
LeftToes  -60.5763 1.31378e-006 1.14341e-007
548
root  -27.8862 33.5073 -32.0873 5.86388 48.237 -10.1302
RightUpLeg  -28.1481 -5.50866 10.2636
RightLeg  29.3191 -2.09575 -1.01443
RightFoot  -6.29458 -0.0119909 0.33741
RightToes  -13.219 -0.0469682 -0.120194
Spine  -1.42316 -1.67983 3.66087
Spine1  -3.00757 -3.49908 7.90354
HEad  -69.331 5.16031 2.66135
LeftShoulder1  -1.94126e-019 -3.10601e-018 -2.51263e-017
LeftArm  -14.8184 20.1621 -81.6639
LeftForeArm  28.4095 -30.1009 -5.16066
LeftHand  -0.486629 -0.699303 9.39796
RightShoulder  -4.96962e-017 0 -2.36833e-017
RightArm  -32.5742 -25.3089 71.6956
RightForeArm  54.4797 11.3378 1.53446
RightHand  -0.24833 -2.11129 -8.53078
LeftUpLeg  -13.2035 12.6587 4.85397
LeftLeg  58.6625 8.46302 11.8496
LeftFoot  30.5312 -2.03793 7.61882
LeftToes  -37.1958 1.31378e-006 1.14341e-007
